2025-02-16 00:15:50,048 - INFO - Received video: kevin.mp4, audio: final_obbama_5_seconds.wav
2025-02-16 00:15:50,055 - INFO - Temporary video file saved at: C:\Users\ihebm\AppData\Local\Temp\tmpg5ut4t6f.mp4 (1291127 bytes)
2025-02-16 00:15:50,062 - ERROR - An error occurred while running the inference command: [Errno 2] No such file or directory: '/app/Wav2Lip\\kevin.mp4'
Traceback (most recent call last):
  File "C:\Users\ihebm\miniconda3\envs\newenvir\Lib\shutil.py", line 853, in move
    os.rename(src, real_dst)
FileNotFoundError: [WinError 3] Le chemin d’accès spécifié est introuvable: 'C:\\Users\\ihebm\\AppData\\Local\\Temp\\tmpg5ut4t6f.mp4' -> '/app/Wav2Lip\\kevin.mp4'

During handling of the above exception, another exception occurred:

Traceback (most recent call last):
  File "C:\Users\ihebm\PycharmProjects\FastAPIProject\app\services\lipsync_service.py", line 33, in process_lipsync
    shutil.move(video_path, video_new_path)
  File "C:\Users\ihebm\miniconda3\envs\newenvir\Lib\shutil.py", line 873, in move
    copy_function(src, real_dst)
  File "C:\Users\ihebm\miniconda3\envs\newenvir\Lib\shutil.py", line 448, in copy2
    copyfile(src, dst, follow_symlinks=follow_symlinks)
  File "C:\Users\ihebm\miniconda3\envs\newenvir\Lib\shutil.py", line 258, in copyfile
    with open(dst, 'wb') as fdst:
         ^^^^^^^^^^^^^^^
FileNotFoundError: [Errno 2] No such file or directory: '/app/Wav2Lip\\kevin.mp4'
2025-02-16 00:16:55,363 - INFO - Received video: kevin.mp4, audio: final_obbama_5_seconds.wav
2025-02-16 00:16:55,363 - INFO - Temporary video file saved at: C:\Users\ihebm\AppData\Local\Temp\tmpew4xbhp3.mp4 (1291127 bytes)
2025-02-16 00:16:55,377 - INFO - Temporary audio file saved at: C:\Users\ihebm\AppData\Local\Temp\tmphdw69t_y.wav (884814 bytes)
2025-02-16 00:16:55,391 - ERROR - An error occurred while running the inference command: [WinError 3] Le chemin d’accès spécifié est introuvable: '/app/Wav2Lip/'
Traceback (most recent call last):
  File "C:\Users\ihebm\PycharmProjects\FastAPIProject\app\services\lipsync_service.py", line 48, in process_lipsync
    os.chdir("/app/Wav2Lip/")
FileNotFoundError: [WinError 3] Le chemin d’accès spécifié est introuvable: '/app/Wav2Lip/'
2025-02-16 00:17:17,873 - INFO - Received video: kevin.mp4, audio: final_obbama_5_seconds.wav
2025-02-16 00:17:17,875 - INFO - Temporary video file saved at: C:\Users\ihebm\AppData\Local\Temp\tmps2595da8.mp4 (1291127 bytes)
2025-02-16 00:17:17,889 - INFO - Temporary audio file saved at: C:\Users\ihebm\AppData\Local\Temp\tmpqxonqcnw.wav (884814 bytes)
2025-02-16 00:17:17,900 - INFO - C:\Users\ihebm\PycharmProjects\FastAPIProject\app\Wav2Lip  # Get current working directory
2025-02-16 00:17:17,900 - INFO - Running inference command: python inference.py --checkpoint_path wav2lip.pth --face kevin.mp4 --audio final_obbama_5_seconds.wav
2025-02-16 00:17:24,589 - INFO - Using cpu for inference.
2025-02-16 00:17:24,589 - INFO - Reading video frames...
2025-02-16 00:17:24,589 - INFO - Number of frames available for inference: 120
2025-02-16 00:17:24,589 - INFO - (80, 402)
2025-02-16 00:17:24,589 - INFO - Length of mel chunks: 118
2025-02-16 00:43:22,283 - INFO - Received video: kevin.mp4, audio: final_obbama_5_seconds.wav
2025-02-16 00:43:22,291 - INFO - Temporary video file saved at: C:\Users\ihebm\AppData\Local\Temp\tmp8f1zpk3o.mp4 (1291127 bytes)
2025-02-16 00:43:22,291 - INFO - Temporary audio file saved at: C:\Users\ihebm\AppData\Local\Temp\tmpnky_szc7.wav (884814 bytes)
2025-02-16 00:43:22,291 - INFO - C:\Users\ihebm\PycharmProjects\FastAPIProject\app\Wav2Lip  # Get current working directory
2025-02-16 00:43:22,291 - INFO - Running inference command: python inference.py --checkpoint_path wav2lip.pth --face kevin.mp4 --audio final_obbama_5_seconds.wav
2025-02-16 00:43:28,309 - INFO - Using cpu for inference.
2025-02-16 00:43:28,309 - INFO - Reading video frames...
2025-02-16 00:43:28,309 - INFO - Number of frames available for inference: 120
2025-02-16 00:43:28,309 - INFO - (80, 402)
2025-02-16 00:43:28,309 - INFO - Length of mel chunks: 118
2025-02-16 01:03:59,013 - INFO - Received video: kevin.mp4, audio: final_obbama_5_seconds.wav
2025-02-16 01:03:59,013 - INFO - Temporary video file saved at: C:\Users\ihebm\AppData\Local\Temp\tmpv5tw6x6x.mp4 (1291127 bytes)
2025-02-16 01:03:59,027 - INFO - Temporary audio file saved at: C:\Users\ihebm\AppData\Local\Temp\tmpaaom055d.wav (884814 bytes)
2025-02-16 01:03:59,034 - INFO - Current working directory: C:\Users\ihebm\PycharmProjects\FastAPIProject\app\Wav2Lip
2025-02-16 01:03:59,034 - INFO - Running inference command: python inference.py --checkpoint_path wav2lip.pth --face kevin.mp4 --audio final_obbama_5_seconds.wav
2025-02-16 01:04:05,070 - ERROR - C:\Users\ihebm\PycharmProjects\FastAPIProject\app\Wav2Lip\audio.py:100: FutureWarning: Pass sr=16000, n_fft=800 as keyword args. From version 0.10 passing these as positional arguments will result in an error
2025-02-16 01:04:05,070 - ERROR - return librosa.filters.mel(hp.sample_rate, hp.n_fft, n_mels=hp.num_mels,
2025-02-16 01:04:05,070 - INFO - Using cpu for inference.
2025-02-16 01:04:05,070 - ERROR - 
2025-02-16 01:04:05,070 - INFO - Reading video frames...
2025-02-16 01:04:05,070 - INFO - Number of frames available for inference: 120
2025-02-16 01:04:05,070 - INFO - (80, 402)
2025-02-16 01:04:05,070 - INFO - Length of mel chunks: 118
2025-02-16 01:04:05,290 - ERROR - 0%|          | 0/1 [00:00<?, ?it/s]
2025-02-16 01:04:05,290 - ERROR - 
2025-02-16 01:04:19,601 - ERROR - 0%|          | 0/8 [00:00<?, ?it/s][A
2025-02-16 01:04:19,607 - ERROR - 0%|          | 0/8 [00:14<?, ?it/s]
2025-02-16 01:04:19,609 - ERROR - 
2025-02-16 01:04:19,611 - ERROR - 0%|          | 0/1 [00:14<?, ?it/s]
2025-02-16 01:04:19,611 - ERROR - Traceback (most recent call last):
2025-02-16 01:04:19,611 - ERROR - File "C:\Users\ihebm\PycharmProjects\FastAPIProject\app\Wav2Lip\inference.py", line 278, in <module>
2025-02-16 01:04:19,617 - ERROR - main()
2025-02-16 01:04:19,622 - ERROR - File "C:\Users\ihebm\PycharmProjects\FastAPIProject\app\Wav2Lip\inference.py", line 247, in main
2025-02-16 01:04:19,623 - ERROR - for i, (img_batch, mel_batch, frames, coords) in enumerate(tqdm(gen,
2025-02-16 01:04:19,623 - ERROR - ^^^^^^^^^^^^^^^^^^^^^^^^^^^^^^^^^^^^^^^^^^^^^^^^^^^^^^^^^^^^^^^^^^^^
2025-02-16 01:04:19,624 - ERROR - File "C:\Users\ihebm\miniconda3\envs\newenvir\Lib\site-packages\tqdm\std.py", line 1181, in __iter__
2025-02-16 01:04:19,628 - ERROR - for obj in iterable:
2025-02-16 01:04:19,629 - ERROR - File "C:\Users\ihebm\PycharmProjects\FastAPIProject\app\Wav2Lip\inference.py", line 111, in datagen
2025-02-16 01:04:19,629 - ERROR - face_det_results = face_detect(frames) # BGR2RGB for CNN face detection
2025-02-16 01:04:19,630 - ERROR - ^^^^^^^^^^^^^^^^^^^
2025-02-16 01:04:19,630 - ERROR - File "C:\Users\ihebm\PycharmProjects\FastAPIProject\app\Wav2Lip\inference.py", line 76, in face_detect
2025-02-16 01:04:19,630 - ERROR - predictions.extend(detector.get_detections_for_batch(np.array(images[i:i + batch_size])))
2025-02-16 01:04:19,631 - ERROR - ^^^^^^^^^^^^^^^^^^^^^^^^^^^^^^^^^^^^^^^^^^^^^^^^^^^^^^^^^^^^^^^^^^^^^
2025-02-16 01:04:19,631 - ERROR - File "C:\Users\ihebm\PycharmProjects\FastAPIProject\app\Wav2Lip\face_detection\api.py", line 66, in get_detections_for_batch
2025-02-16 01:04:19,794 - ERROR - detected_faces = self.face_detector.detect_from_batch(images.copy())
2025-02-16 01:04:19,794 - ERROR - ^^^^^^^^^^^^^^^^^^^^^^^^^^^^^^^^^^^^^^^^^^^^^^^^^^^
2025-02-16 01:04:19,796 - ERROR - File "C:\Users\ihebm\PycharmProjects\FastAPIProject\app\Wav2Lip\face_detection\detection\sfd\sfd_detector.py", line 42, in detect_from_batch
2025-02-16 01:04:19,843 - ERROR - bboxlists = batch_detect(self.face_detector, images, device=self.device)
2025-02-16 01:04:19,843 - ERROR - ^^^^^^^^^^^^^^^^^^^^^^^^^^^^^^^^^^^^^^^^^^^^^^^^^^^^^^^^^^^^
2025-02-16 01:04:19,843 - ERROR - File "C:\Users\ihebm\PycharmProjects\FastAPIProject\app\Wav2Lip\face_detection\detection\sfd\detect.py", line 68, in batch_detect
2025-02-16 01:04:19,861 - ERROR - olist = net(imgs)
2025-02-16 01:04:19,861 - ERROR - ^^^^^^^^^
2025-02-16 01:04:19,861 - ERROR - File "C:\Users\ihebm\miniconda3\envs\newenvir\Lib\site-packages\torch\nn\modules\module.py", line 1739, in _wrapped_call_impl
2025-02-16 01:04:19,861 - ERROR - return self._call_impl(*args, **kwargs)
2025-02-16 01:04:19,861 - ERROR - ^^^^^^^^^^^^^^^^^^^^^^^^^^^^^^^^
2025-02-16 01:04:19,861 - ERROR - File "C:\Users\ihebm\miniconda3\envs\newenvir\Lib\site-packages\torch\nn\modules\module.py", line 1750, in _call_impl
2025-02-16 01:04:19,861 - ERROR - return forward_call(*args, **kwargs)
2025-02-16 01:04:19,861 - ERROR - ^^^^^^^^^^^^^^^^^^^^^^^^^^^^^
2025-02-16 01:04:19,861 - ERROR - File "C:\Users\ihebm\PycharmProjects\FastAPIProject\app\Wav2Lip\face_detection\detection\sfd\net_s3fd.py", line 72, in forward
2025-02-16 01:04:19,875 - ERROR - h = F.relu(self.conv1_2(h))
2025-02-16 01:04:19,875 - ERROR - ^^^^^^^^^^^^^^^^^^^^^^^
2025-02-16 01:04:19,875 - ERROR - File "C:\Users\ihebm\miniconda3\envs\newenvir\Lib\site-packages\torch\nn\functional.py", line 1704, in relu
2025-02-16 01:04:19,875 - ERROR - result = torch.relu(input)
2025-02-16 01:04:19,891 - ERROR - ^^^^^^^^^^^^^^^^^
2025-02-16 01:04:19,891 - ERROR - KeyboardInterrupt
2025-02-16 01:04:22,200 - ERROR - An error occurred: Inference failed with return code 3221225786
Traceback (most recent call last):
  File "C:\Users\ihebm\PycharmProjects\FastAPIProject\app\services\lipsync_service.py", line 92, in process_lipsync
    raise RuntimeError(f"Inference failed with return code {return_code}")
RuntimeError: Inference failed with return code 3221225786
2025-02-16 01:05:40,006 - INFO - Received video: kevin.mp4, audio: final_obbama_5_seconds.wav
2025-02-16 01:05:40,006 - INFO - Temporary video file saved at: C:\Users\ihebm\AppData\Local\Temp\tmpb6m8yukw.mp4 (1291127 bytes)
2025-02-16 01:05:40,006 - INFO - Temporary audio file saved at: C:\Users\ihebm\AppData\Local\Temp\tmpryvsfv4u.wav (884814 bytes)
2025-02-16 01:05:40,006 - INFO - Current working directory: C:\Users\ihebm\PycharmProjects\FastAPIProject\app\Wav2Lip
2025-02-16 01:05:40,006 - INFO - Running inference command: python inference.py --checkpoint_path wav2lip.pth --face kevin.mp4 --audio final_obbama_5_seconds.wav
2025-02-16 01:05:46,715 - ERROR - C:\Users\ihebm\PycharmProjects\FastAPIProject\app\Wav2Lip\audio.py:100: FutureWarning: Pass sr=16000, n_fft=800 as keyword args. From version 0.10 passing these as positional arguments will result in an error
2025-02-16 01:05:46,715 - ERROR - return librosa.filters.mel(hp.sample_rate, hp.n_fft, n_mels=hp.num_mels,
2025-02-16 01:05:46,715 - INFO - Using cpu for inference.
2025-02-16 01:05:46,715 - ERROR - 
2025-02-16 01:05:46,715 - INFO - Reading video frames...
2025-02-16 01:05:46,715 - INFO - Number of frames available for inference: 120
2025-02-16 01:05:46,715 - INFO - (80, 402)
2025-02-16 01:05:46,715 - INFO - Length of mel chunks: 118
2025-02-16 01:05:46,985 - ERROR - 0%|          | 0/1 [00:00<?, ?it/s]
2025-02-16 01:05:46,985 - ERROR - 
2025-02-16 01:06:38,965 - ERROR - 0%|          | 0/8 [00:00<?, ?it/s][A
2025-02-16 01:06:38,965 - ERROR - 
2025-02-16 01:07:24,148 - ERROR - 12%|#2        | 1/8 [00:51<06:03, 51.96s/it][A
2025-02-16 01:07:24,164 - ERROR - 
2025-02-16 01:08:10,967 - ERROR - 25%|##5       | 2/8 [01:37<04:47, 47.98s/it][A
2025-02-16 01:08:10,972 - ERROR - 
2025-02-16 01:08:58,646 - ERROR - 38%|###7      | 3/8 [02:23<03:57, 47.45s/it][A
2025-02-16 01:08:58,657 - ERROR - 
2025-02-16 01:09:44,533 - ERROR - 50%|#####     | 4/8 [03:11<03:10, 47.54s/it][A
2025-02-16 01:09:44,533 - ERROR - 
2025-02-16 01:10:30,177 - ERROR - 62%|######2   | 5/8 [03:57<02:20, 46.95s/it][A
2025-02-16 01:10:30,177 - ERROR - 
2025-02-16 01:11:16,228 - ERROR - 75%|#######5  | 6/8 [04:43<01:33, 46.50s/it][A
2025-02-16 01:11:16,235 - ERROR - 
2025-02-16 01:11:33,051 - ERROR - 88%|########7 | 7/8 [05:29<00:46, 46.36s/it][A
2025-02-16 01:11:33,051 - ERROR - 
2025-02-16 01:11:33,053 - ERROR - 100%|##########| 8/8 [05:46<00:00, 36.95s/it][A
2025-02-16 01:11:33,053 - ERROR - 100%|##########| 8/8 [05:46<00:00, 43.26s/it]
2025-02-16 01:11:39,888 - ERROR - 
2025-02-16 01:11:39,888 - ERROR - 100%|##########| 1/1 [05:53<00:00, 353.17s/it]
2025-02-16 01:11:39,888 - ERROR - 100%|##########| 1/1 [05:53<00:00, 353.17s/it]
2025-02-16 01:11:40,727 - ERROR - ffmpeg version 7.1 Copyright (c) 2000-2024 the FFmpeg developers
2025-02-16 01:11:40,727 - ERROR - built with clang version 19.1.7
2025-02-16 01:11:40,727 - ERROR - configuration: --prefix=/d/bld/ffmpeg_1739478377444/_h_env/Library --cc=clang.exe --cxx=clang++.exe --nm=llvm-nm --ar=llvm-ar --disable-doc --enable-openssl --enable-demuxer=dash --enable-hardcoded-tables --enable-libfreetype --enable-libharfbuzz --enable-libfontconfig --enable-libopenh264 --enable-libdav1d --ld=lld-link --target-os=win64 --enable-cross-compile --toolchain=msvc --host-cc=clang.exe --extra-libs=ucrt.lib --extra-libs=vcruntime.lib --extra-libs=oldnames.lib --strip=llvm-strip --disable-stripping --host-extralibs= --disable-libopenvino --enable-gpl --enable-libx264 --enable-libx265 --enable-libaom --enable-libsvtav1 --enable-libxml2 --enable-pic --enable-shared --disable-static --enable-version3 --enable-zlib --enable-libopus --enable-librsvg --enable-ffplay --pkg-config=/d/bld/ffmpeg_1739478377444/_build_env/Library/bin/pkg-config
2025-02-16 01:11:40,727 - ERROR - libavutil      59. 39.100 / 59. 39.100
2025-02-16 01:11:40,727 - ERROR - libavcodec     61. 19.100 / 61. 19.100
2025-02-16 01:11:40,727 - ERROR - libavformat    61.  7.100 / 61.  7.100
2025-02-16 01:11:40,727 - ERROR - libavdevice    61.  3.100 / 61.  3.100
2025-02-16 01:11:40,739 - ERROR - libavfilter    10.  4.100 / 10.  4.100
2025-02-16 01:11:40,739 - ERROR - libswscale      8.  3.100 /  8.  3.100
2025-02-16 01:11:40,739 - ERROR - libswresample   5.  3.100 /  5.  3.100
2025-02-16 01:11:40,739 - ERROR - libpostproc    58.  3.100 / 58.  3.100
2025-02-16 01:11:40,755 - ERROR - [aist#0:0/pcm_s16le @ 000002BC047E9D40] Guessed Channel Layout: stereo
2025-02-16 01:11:40,755 - ERROR - Input #0, wav, from 'final_obbama_5_seconds.wav':
2025-02-16 01:11:40,755 - ERROR - Metadata:
2025-02-16 01:11:40,755 - ERROR - encoder         : Lavf58.20.100
2025-02-16 01:11:40,755 - ERROR - Duration: 00:00:05.02, bitrate: 1411 kb/s
2025-02-16 01:11:40,755 - ERROR - Stream #0:0: Audio: pcm_s16le ([1][0][0][0] / 0x0001), 44100 Hz, stereo, s16, 1411 kb/s
2025-02-16 01:11:40,772 - ERROR - Input #1, avi, from 'temp/result.avi':
2025-02-16 01:11:40,772 - ERROR - Metadata:
2025-02-16 01:11:40,772 - ERROR - software        : Lavf58.76.100
2025-02-16 01:11:40,772 - ERROR - Duration: 00:00:04.88, start: 0.000000, bitrate: 1644 kb/s
2025-02-16 01:11:40,772 - ERROR - Stream #1:0: Video: mpeg4 (Simple Profile) (DIVX / 0x58564944), yuv420p, 1280x720 [SAR 1:1 DAR 16:9], 1644 kb/s, 24.18 fps, 24.17 tbr, 24.18 tbn
2025-02-16 01:11:40,772 - ERROR - Stream mapping:
2025-02-16 01:11:40,772 - ERROR - Stream #1:0 -> #0:0 (mpeg4 (native) -> h264 (libx264))
2025-02-16 01:11:40,772 - ERROR - Stream #0:0 -> #0:1 (pcm_s16le (native) -> aac (native))
2025-02-16 01:11:40,772 - ERROR - Press [q] to stop, [?] for help
2025-02-16 01:11:40,772 - ERROR - [libx264 @ 000002BC0652E740] -qscale is ignored, -crf is recommended.
2025-02-16 01:11:40,772 - ERROR - [libx264 @ 000002BC0652E740] using SAR=1/1
2025-02-16 01:11:40,772 - ERROR - [libx264 @ 000002BC0652E740] using cpu capabilities: MMX2 SSE2Fast SSSE3 SSE4.2 AVX FMA3 BMI2 AVX2
2025-02-16 01:11:40,772 - ERROR - [libx264 @ 000002BC0652E740] profile High, level 3.1, 4:2:0, 8-bit
2025-02-16 01:11:40,788 - ERROR - [libx264 @ 000002BC0652E740] 264 - core 164 r3095 baee400 - H.264/MPEG-4 AVC codec - Copyleft 2003-2022 - http://www.videolan.org/x264.html - options: cabac=1 ref=3 deblock=1:0:0 analyse=0x3:0x113 me=hex subme=7 psy=1 psy_rd=1.00:0.00 mixed_ref=1 me_range=16 chroma_me=1 trellis=1 8x8dct=1 cqm=0 deadzone=21,11 fast_pskip=1 chroma_qp_offset=-2 threads=12 lookahead_threads=2 sliced_threads=0 nr=0 decimate=1 interlaced=0 bluray_compat=0 constrained_intra=0 bframes=3 b_pyramid=2 b_adapt=1 b_bias=0 direct=1 weightb=1 open_gop=0 weightp=2 keyint=250 keyint_min=24 scenecut=40 intra_refresh=0 rc_lookahead=40 rc=crf mbtree=1 crf=23.0 qcomp=0.60 qpmin=0 qpmax=69 qpstep=4 ip_ratio=1.40 aq=1:1.00
2025-02-16 01:11:40,790 - ERROR - Output #0, mp4, to 'results/result_voice.mp4':
2025-02-16 01:11:40,790 - ERROR - Metadata:
2025-02-16 01:11:40,790 - ERROR - encoder         : Lavf61.7.100
2025-02-16 01:11:40,790 - ERROR - Stream #0:0: Video: h264 (avc1 / 0x31637661), yuv420p(tv, progressive), 1280x720 [SAR 1:1 DAR 16:9], q=2-31, 24.17 fps, 18560 tbn
2025-02-16 01:11:40,790 - ERROR - Metadata:
2025-02-16 01:11:40,790 - ERROR - encoder         : Lavc61.19.100 libx264
2025-02-16 01:11:40,790 - ERROR - Side data:
2025-02-16 01:11:40,790 - ERROR - cpb: bitrate max/min/avg: 0/0/0 buffer size: 0 vbv_delay: N/A
2025-02-16 01:11:40,790 - ERROR - Stream #0:1: Audio: aac (LC) (mp4a / 0x6134706D), 44100 Hz, stereo, fltp, 128 kb/s
2025-02-16 01:11:40,790 - ERROR - Metadata:
2025-02-16 01:11:40,794 - ERROR - encoder         : Lavc61.19.100 aac
2025-02-16 01:11:41,729 - ERROR - frame=   40 fps=0.0 q=28.0 size=       0KiB time=00:00:01.53 bitrate=   0.3kbits/s speed=2.98x
2025-02-16 01:11:41,729 - ERROR - [out#0/mp4 @ 000002BC0483EE00] video:480KiB audio:81KiB subtitle:0KiB other streams:0KiB global headers:0KiB muxing overhead: 0.836473%
2025-02-16 01:11:41,729 - ERROR - frame=  118 fps=0.0 q=-1.0 Lsize=     565KiB time=00:00:04.80 bitrate= 964.4kbits/s speed=5.02x
2025-02-16 01:11:41,741 - ERROR - [libx264 @ 000002BC0652E740] frame I:1     Avg QP:15.11  size: 21519
2025-02-16 01:11:41,741 - ERROR - [libx264 @ 000002BC0652E740] frame P:84    Avg QP:20.72  size:  4801
2025-02-16 01:11:41,741 - ERROR - [libx264 @ 000002BC0652E740] frame B:33    Avg QP:23.56  size:  1990
2025-02-16 01:11:41,741 - ERROR - [libx264 @ 000002BC0652E740] consecutive B-frames: 57.6% 13.6%  5.1% 23.7%
2025-02-16 01:11:41,741 - ERROR - [libx264 @ 000002BC0652E740] mb I  I16..4: 62.0% 36.6%  1.4%
2025-02-16 01:11:41,741 - ERROR - [libx264 @ 000002BC0652E740] mb P  I16..4:  1.4%  5.5%  0.1%  P16..4: 17.2%  3.4%  1.5%  0.0%  0.0%    skip:71.0%
2025-02-16 01:11:41,741 - ERROR - [libx264 @ 000002BC0652E740] mb B  I16..4:  0.4%  1.3%  0.0%  B16..8: 18.7%  1.5%  0.2%  direct: 0.5%  skip:77.4%  L0:57.5% L1:38.2% BI: 4.3%
2025-02-16 01:11:41,741 - ERROR - [libx264 @ 000002BC0652E740] 8x8 transform intra:72.4% inter:83.9%
2025-02-16 01:11:41,741 - ERROR - [libx264 @ 000002BC0652E740] coded y,uvDC,uvAC intra: 30.8% 52.7% 8.8% inter: 4.1% 5.7% 0.1%
2025-02-16 01:11:41,741 - ERROR - [libx264 @ 000002BC0652E740] i16 v,h,dc,p: 53% 23% 15%  9%
2025-02-16 01:11:41,741 - ERROR - [libx264 @ 000002BC0652E740] i8 v,h,dc,ddl,ddr,vr,hd,vl,hu: 24% 22% 39%  3%  3%  3%  2%  2%  2%
2025-02-16 01:11:41,744 - ERROR - [libx264 @ 000002BC0652E740] i4 v,h,dc,ddl,ddr,vr,hd,vl,hu: 28% 18% 21%  3%  8%  7%  5%  5%  6%
2025-02-16 01:11:41,744 - ERROR - [libx264 @ 000002BC0652E740] i8c dc,h,v,p: 43% 23% 28%  6%
2025-02-16 01:11:41,744 - ERROR - [libx264 @ 000002BC0652E740] Weighted P-Frames: Y:0.0% UV:0.0%
2025-02-16 01:11:41,744 - ERROR - [libx264 @ 000002BC0652E740] ref P L0: 74.1%  8.7% 12.4%  4.8%
2025-02-16 01:11:41,744 - ERROR - [libx264 @ 000002BC0652E740] ref B L0: 84.2% 12.7%  3.1%
2025-02-16 01:11:41,744 - ERROR - [libx264 @ 000002BC0652E740] ref B L1: 96.6%  3.4%
2025-02-16 01:11:41,744 - ERROR - [libx264 @ 000002BC0652E740] kb/s:803.65
2025-02-16 01:11:41,746 - ERROR - [aac @ 000002BC064802C0] Qavg: 1353.375
2025-02-16 01:11:41,875 - INFO - Load checkpoint from: wav2lip.pth
2025-02-16 01:11:41,875 - INFO - Model loaded
2025-02-16 01:11:43,327 - INFO - Inference completed successfully.
2025-02-16 01:11:43,327 - ERROR - An error occurred: Output video file was not created.
Traceback (most recent call last):
  File "C:\Users\ihebm\PycharmProjects\FastAPIProject\app\services\lipsync_service.py", line 99, in process_lipsync
    raise FileNotFoundError("Output video file was not created.")
FileNotFoundError: Output video file was not created.
2025-02-16 01:14:27,055 - INFO - Received video: kevin.mp4, audio: final_obbama_5_seconds.wav
2025-02-16 01:14:27,055 - INFO - Temporary video file saved at: C:\Users\ihebm\AppData\Local\Temp\tmplnbj4wju.mp4 (1291127 bytes)
2025-02-16 01:14:27,055 - INFO - Temporary audio file saved at: C:\Users\ihebm\AppData\Local\Temp\tmpeaw5ycbf.wav (884814 bytes)
2025-02-16 01:14:27,062 - INFO - Current working directory: C:\Users\ihebm\PycharmProjects\FastAPIProject\app\Wav2Lip
2025-02-16 01:14:27,062 - INFO - Running inference command: python inference.py --checkpoint_path wav2lip.pth --face kevin.mp4 --audio final_obbama_5_seconds.wav
2025-02-16 01:14:34,382 - ERROR - C:\Users\ihebm\PycharmProjects\FastAPIProject\app\Wav2Lip\audio.py:100: FutureWarning: Pass sr=16000, n_fft=800 as keyword args. From version 0.10 passing these as positional arguments will result in an error
2025-02-16 01:14:34,383 - ERROR - return librosa.filters.mel(hp.sample_rate, hp.n_fft, n_mels=hp.num_mels,
2025-02-16 01:14:34,387 - INFO - Using cpu for inference.
2025-02-16 01:14:34,387 - ERROR - 
2025-02-16 01:14:34,387 - INFO - Reading video frames...
2025-02-16 01:14:34,388 - INFO - Number of frames available for inference: 120
2025-02-16 01:14:34,388 - INFO - (80, 402)
2025-02-16 01:14:34,388 - INFO - Length of mel chunks: 118
2025-02-16 01:14:34,607 - ERROR - 0%|          | 0/1 [00:00<?, ?it/s]
2025-02-16 01:14:34,608 - ERROR - 
2025-02-16 01:15:34,693 - ERROR - 0%|          | 0/8 [00:00<?, ?it/s][A
2025-02-16 01:15:34,709 - ERROR - 
2025-02-16 01:16:19,982 - ERROR - 12%|#2        | 1/8 [01:00<07:00, 60.08s/it][A
2025-02-16 01:16:19,982 - ERROR - 
2025-02-16 01:17:05,119 - ERROR - 25%|##5       | 2/8 [01:45<05:08, 51.38s/it][A
2025-02-16 01:17:05,119 - ERROR - 
2025-02-16 01:17:50,024 - ERROR - 38%|###7      | 3/8 [02:30<04:02, 48.53s/it][A
2025-02-16 01:17:50,040 - ERROR - 
2025-02-16 01:18:35,606 - ERROR - 50%|#####     | 4/8 [03:15<03:08, 47.10s/it][A
2025-02-16 01:18:35,606 - ERROR - 
2025-02-16 01:19:20,425 - ERROR - 62%|######2   | 5/8 [04:00<02:19, 46.55s/it][A
2025-02-16 01:19:20,425 - ERROR - 
2025-02-16 01:20:06,016 - ERROR - 75%|#######5  | 6/8 [04:45<01:31, 45.96s/it][A
2025-02-16 01:20:06,023 - ERROR - 
2025-02-16 01:20:22,854 - ERROR - 88%|########7 | 7/8 [05:31<00:45, 45.84s/it][A
2025-02-16 01:20:22,854 - ERROR - 
2025-02-16 01:20:22,856 - ERROR - 100%|##########| 8/8 [05:48<00:00, 36.61s/it][A
2025-02-16 01:20:22,858 - ERROR - 100%|##########| 8/8 [05:48<00:00, 43.53s/it]
2025-02-16 01:20:29,888 - ERROR - 
2025-02-16 01:20:29,888 - ERROR - 100%|##########| 1/1 [05:55<00:00, 355.50s/it]
2025-02-16 01:20:29,888 - ERROR - 100%|##########| 1/1 [05:55<00:00, 355.50s/it]
2025-02-16 01:20:29,979 - ERROR - ffmpeg version 7.1 Copyright (c) 2000-2024 the FFmpeg developers
2025-02-16 01:20:29,979 - ERROR - built with clang version 19.1.7
2025-02-16 01:20:29,979 - ERROR - configuration: --prefix=/d/bld/ffmpeg_1739478377444/_h_env/Library --cc=clang.exe --cxx=clang++.exe --nm=llvm-nm --ar=llvm-ar --disable-doc --enable-openssl --enable-demuxer=dash --enable-hardcoded-tables --enable-libfreetype --enable-libharfbuzz --enable-libfontconfig --enable-libopenh264 --enable-libdav1d --ld=lld-link --target-os=win64 --enable-cross-compile --toolchain=msvc --host-cc=clang.exe --extra-libs=ucrt.lib --extra-libs=vcruntime.lib --extra-libs=oldnames.lib --strip=llvm-strip --disable-stripping --host-extralibs= --disable-libopenvino --enable-gpl --enable-libx264 --enable-libx265 --enable-libaom --enable-libsvtav1 --enable-libxml2 --enable-pic --enable-shared --disable-static --enable-version3 --enable-zlib --enable-libopus --enable-librsvg --enable-ffplay --pkg-config=/d/bld/ffmpeg_1739478377444/_build_env/Library/bin/pkg-config
2025-02-16 01:20:29,979 - ERROR - libavutil      59. 39.100 / 59. 39.100
2025-02-16 01:20:29,979 - ERROR - libavcodec     61. 19.100 / 61. 19.100
2025-02-16 01:20:29,983 - ERROR - libavformat    61.  7.100 / 61.  7.100
2025-02-16 01:20:29,983 - ERROR - libavdevice    61.  3.100 / 61.  3.100
2025-02-16 01:20:29,983 - ERROR - libavfilter    10.  4.100 / 10.  4.100
2025-02-16 01:20:29,983 - ERROR - libswscale      8.  3.100 /  8.  3.100
2025-02-16 01:20:29,983 - ERROR - libswresample   5.  3.100 /  5.  3.100
2025-02-16 01:20:29,983 - ERROR - libpostproc    58.  3.100 / 58.  3.100
2025-02-16 01:20:29,998 - ERROR - [aist#0:0/pcm_s16le @ 0000023D0EA6E080] Guessed Channel Layout: stereo
2025-02-16 01:20:29,998 - ERROR - Input #0, wav, from 'final_obbama_5_seconds.wav':
2025-02-16 01:20:29,998 - ERROR - Metadata:
2025-02-16 01:20:30,009 - ERROR - encoder         : Lavf58.20.100
2025-02-16 01:20:30,009 - ERROR - Duration: 00:00:05.02, bitrate: 1411 kb/s
2025-02-16 01:20:30,009 - ERROR - Stream #0:0: Audio: pcm_s16le ([1][0][0][0] / 0x0001), 44100 Hz, stereo, s16, 1411 kb/s
2025-02-16 01:20:30,032 - ERROR - Input #1, avi, from 'temp/result.avi':
2025-02-16 01:20:30,032 - ERROR - Metadata:
2025-02-16 01:20:30,032 - ERROR - software        : Lavf58.76.100
2025-02-16 01:20:30,032 - ERROR - Duration: 00:00:04.88, start: 0.000000, bitrate: 1644 kb/s
2025-02-16 01:20:30,032 - ERROR - Stream #1:0: Video: mpeg4 (Simple Profile) (DIVX / 0x58564944), yuv420p, 1280x720 [SAR 1:1 DAR 16:9], 1644 kb/s, 24.18 fps, 24.17 tbr, 24.18 tbn
2025-02-16 01:20:30,034 - ERROR - Stream mapping:
2025-02-16 01:20:30,034 - ERROR - Stream #1:0 -> #0:0 (mpeg4 (native) -> h264 (libx264))
2025-02-16 01:20:30,034 - ERROR - Stream #0:0 -> #0:1 (pcm_s16le (native) -> aac (native))
2025-02-16 01:20:30,034 - ERROR - Press [q] to stop, [?] for help
2025-02-16 01:20:30,042 - ERROR - [libx264 @ 0000023D1067E700] -qscale is ignored, -crf is recommended.
2025-02-16 01:20:30,042 - ERROR - [libx264 @ 0000023D1067E700] using SAR=1/1
2025-02-16 01:20:30,042 - ERROR - [libx264 @ 0000023D1067E700] using cpu capabilities: MMX2 SSE2Fast SSSE3 SSE4.2 AVX FMA3 BMI2 AVX2
2025-02-16 01:20:30,044 - ERROR - [libx264 @ 0000023D1067E700] profile High, level 3.1, 4:2:0, 8-bit
2025-02-16 01:20:30,044 - ERROR - [libx264 @ 0000023D1067E700] 264 - core 164 r3095 baee400 - H.264/MPEG-4 AVC codec - Copyleft 2003-2022 - http://www.videolan.org/x264.html - options: cabac=1 ref=3 deblock=1:0:0 analyse=0x3:0x113 me=hex subme=7 psy=1 psy_rd=1.00:0.00 mixed_ref=1 me_range=16 chroma_me=1 trellis=1 8x8dct=1 cqm=0 deadzone=21,11 fast_pskip=1 chroma_qp_offset=-2 threads=12 lookahead_threads=2 sliced_threads=0 nr=0 decimate=1 interlaced=0 bluray_compat=0 constrained_intra=0 bframes=3 b_pyramid=2 b_adapt=1 b_bias=0 direct=1 weightb=1 open_gop=0 weightp=2 keyint=250 keyint_min=24 scenecut=40 intra_refresh=0 rc_lookahead=40 rc=crf mbtree=1 crf=23.0 qcomp=0.60 qpmin=0 qpmax=69 qpstep=4 ip_ratio=1.40 aq=1:1.00
2025-02-16 01:20:30,044 - ERROR - Output #0, mp4, to 'results/result_voice.mp4':
2025-02-16 01:20:30,044 - ERROR - Metadata:
2025-02-16 01:20:30,044 - ERROR - encoder         : Lavf61.7.100
2025-02-16 01:20:30,044 - ERROR - Stream #0:0: Video: h264 (avc1 / 0x31637661), yuv420p(tv, progressive), 1280x720 [SAR 1:1 DAR 16:9], q=2-31, 24.17 fps, 18560 tbn
2025-02-16 01:20:30,044 - ERROR - Metadata:
2025-02-16 01:20:30,044 - ERROR - encoder         : Lavc61.19.100 libx264
2025-02-16 01:20:30,044 - ERROR - Side data:
2025-02-16 01:20:30,044 - ERROR - cpb: bitrate max/min/avg: 0/0/0 buffer size: 0 vbv_delay: N/A
2025-02-16 01:20:30,044 - ERROR - Stream #0:1: Audio: aac (LC) (mp4a / 0x6134706D), 44100 Hz, stereo, fltp, 128 kb/s
2025-02-16 01:20:30,044 - ERROR - Metadata:
2025-02-16 01:20:30,044 - ERROR - encoder         : Lavc61.19.100 aac
2025-02-16 01:20:30,936 - ERROR - frame=   46 fps=0.0 q=28.0 size=       0KiB time=00:00:01.82 bitrate=   0.2kbits/s speed=3.58x
2025-02-16 01:20:30,936 - ERROR - [out#0/mp4 @ 0000023D0EA36640] video:480KiB audio:81KiB subtitle:0KiB other streams:0KiB global headers:0KiB muxing overhead: 0.836473%
2025-02-16 01:20:30,936 - ERROR - frame=  118 fps=0.0 q=-1.0 Lsize=     565KiB time=00:00:04.80 bitrate= 964.4kbits/s speed=5.32x
2025-02-16 01:20:30,936 - ERROR - [libx264 @ 0000023D1067E700] frame I:1     Avg QP:15.11  size: 21519
2025-02-16 01:20:30,936 - ERROR - [libx264 @ 0000023D1067E700] frame P:84    Avg QP:20.72  size:  4801
2025-02-16 01:20:30,936 - ERROR - [libx264 @ 0000023D1067E700] frame B:33    Avg QP:23.56  size:  1990
2025-02-16 01:20:30,936 - ERROR - [libx264 @ 0000023D1067E700] consecutive B-frames: 57.6% 13.6%  5.1% 23.7%
2025-02-16 01:20:30,936 - ERROR - [libx264 @ 0000023D1067E700] mb I  I16..4: 62.0% 36.6%  1.4%
2025-02-16 01:20:30,936 - ERROR - [libx264 @ 0000023D1067E700] mb P  I16..4:  1.4%  5.5%  0.1%  P16..4: 17.2%  3.4%  1.5%  0.0%  0.0%    skip:71.0%
2025-02-16 01:20:30,936 - ERROR - [libx264 @ 0000023D1067E700] mb B  I16..4:  0.4%  1.3%  0.0%  B16..8: 18.7%  1.5%  0.2%  direct: 0.5%  skip:77.4%  L0:57.5% L1:38.2% BI: 4.3%
2025-02-16 01:20:30,936 - ERROR - [libx264 @ 0000023D1067E700] 8x8 transform intra:72.4% inter:83.9%
2025-02-16 01:20:30,936 - ERROR - [libx264 @ 0000023D1067E700] coded y,uvDC,uvAC intra: 30.8% 52.7% 8.8% inter: 4.1% 5.7% 0.1%
2025-02-16 01:20:30,936 - ERROR - [libx264 @ 0000023D1067E700] i16 v,h,dc,p: 53% 23% 15%  9%
2025-02-16 01:20:30,936 - ERROR - [libx264 @ 0000023D1067E700] i8 v,h,dc,ddl,ddr,vr,hd,vl,hu: 24% 22% 39%  3%  3%  3%  2%  2%  2%
2025-02-16 01:20:30,936 - ERROR - [libx264 @ 0000023D1067E700] i4 v,h,dc,ddl,ddr,vr,hd,vl,hu: 28% 18% 21%  3%  8%  7%  5%  5%  6%
2025-02-16 01:20:30,936 - ERROR - [libx264 @ 0000023D1067E700] i8c dc,h,v,p: 43% 23% 28%  6%
2025-02-16 01:20:30,936 - ERROR - [libx264 @ 0000023D1067E700] Weighted P-Frames: Y:0.0% UV:0.0%
2025-02-16 01:20:30,936 - ERROR - [libx264 @ 0000023D1067E700] ref P L0: 74.1%  8.7% 12.4%  4.8%
2025-02-16 01:20:30,936 - ERROR - [libx264 @ 0000023D1067E700] ref B L0: 84.2% 12.7%  3.1%
2025-02-16 01:20:30,936 - ERROR - [libx264 @ 0000023D1067E700] ref B L1: 96.6%  3.4%
2025-02-16 01:20:30,936 - ERROR - [libx264 @ 0000023D1067E700] kb/s:803.65
2025-02-16 01:20:30,956 - ERROR - [aac @ 0000023D106321C0] Qavg: 1353.375
2025-02-16 01:20:31,088 - INFO - Load checkpoint from: wav2lip.pth
2025-02-16 01:20:31,088 - INFO - Model loaded
2025-02-16 01:20:32,583 - INFO - Inference completed successfully.
2025-02-16 01:20:32,584 - ERROR - An error occurred: Output video file was not created.
Traceback (most recent call last):
  File "C:\Users\ihebm\PycharmProjects\FastAPIProject\app\services\lipsync_service.py", line 99, in process_lipsync
    raise FileNotFoundError("Output video file was not created.")
FileNotFoundError: Output video file was not created.
2025-02-16 01:22:36,887 - INFO - Received video: kevin.mp4, audio: final_obbama_5_seconds.wav
2025-02-16 01:22:36,894 - INFO - Temporary video file saved at: C:\Users\ihebm\AppData\Local\Temp\tmp46j9or5u.mp4 (1291127 bytes)
2025-02-16 01:22:36,903 - INFO - Temporary audio file saved at: C:\Users\ihebm\AppData\Local\Temp\tmppkqn0cqp.wav (884814 bytes)
2025-02-16 01:22:36,915 - INFO - Current working directory: C:\Users\ihebm\PycharmProjects\FastAPIProject\app\Wav2Lip
2025-02-16 01:22:36,915 - INFO - Running inference command: python inference.py --checkpoint_path wav2lip.pth --face kevin.mp4 --audio final_obbama_5_seconds.wav
2025-02-16 01:22:42,947 - ERROR - C:\Users\ihebm\PycharmProjects\FastAPIProject\app\Wav2Lip\audio.py:100: FutureWarning: Pass sr=16000, n_fft=800 as keyword args. From version 0.10 passing these as positional arguments will result in an error
2025-02-16 01:22:42,947 - ERROR - return librosa.filters.mel(hp.sample_rate, hp.n_fft, n_mels=hp.num_mels,
2025-02-16 01:22:42,947 - INFO - Using cpu for inference.
2025-02-16 01:22:42,947 - ERROR - 
2025-02-16 01:22:42,947 - INFO - Reading video frames...
2025-02-16 01:22:42,947 - INFO - Number of frames available for inference: 120
2025-02-16 01:22:42,947 - INFO - (80, 402)
2025-02-16 01:22:42,947 - INFO - Length of mel chunks: 118
2025-02-16 01:22:43,174 - ERROR - 0%|          | 0/1 [00:00<?, ?it/s]
2025-02-16 01:22:43,174 - ERROR - 
2025-02-16 01:23:34,157 - ERROR - 0%|          | 0/8 [00:00<?, ?it/s][A
2025-02-16 01:23:34,157 - ERROR - 
2025-02-16 01:24:19,105 - ERROR - 12%|#2        | 1/8 [00:50<05:56, 50.98s/it][A
2025-02-16 01:24:19,121 - ERROR - 
2025-02-16 01:25:06,017 - ERROR - 25%|##5       | 2/8 [01:35<04:44, 47.43s/it][A
2025-02-16 01:25:06,033 - ERROR - 
2025-02-16 01:25:51,679 - ERROR - 38%|###7      | 3/8 [02:22<03:55, 47.20s/it][A
2025-02-16 01:25:51,679 - ERROR - 
2025-02-16 01:26:37,139 - ERROR - 50%|#####     | 4/8 [03:08<03:06, 46.59s/it][A
2025-02-16 01:26:37,143 - ERROR - 
2025-02-16 01:27:22,696 - ERROR - 62%|######2   | 5/8 [03:53<02:18, 46.18s/it][A
2025-02-16 01:27:22,696 - ERROR - 
2025-02-16 01:28:07,709 - ERROR - 75%|#######5  | 6/8 [04:39<01:31, 45.97s/it][A
2025-02-16 01:28:07,709 - ERROR - 
2025-02-16 01:28:24,249 - ERROR - 88%|########7 | 7/8 [05:24<00:45, 45.66s/it][A
2025-02-16 01:28:24,249 - ERROR - 
2025-02-16 01:28:24,251 - ERROR - 100%|##########| 8/8 [05:41<00:00, 36.39s/it][A
2025-02-16 01:28:24,251 - ERROR - 100%|##########| 8/8 [05:41<00:00, 42.63s/it]
2025-02-16 01:28:31,210 - ERROR - 
2025-02-16 01:28:31,210 - ERROR - 100%|##########| 1/1 [05:48<00:00, 348.26s/it]
2025-02-16 01:28:31,210 - ERROR - 100%|##########| 1/1 [05:48<00:00, 348.26s/it]
2025-02-16 01:28:31,292 - ERROR - ffmpeg version 7.1 Copyright (c) 2000-2024 the FFmpeg developers
2025-02-16 01:28:31,292 - ERROR - built with clang version 19.1.7
2025-02-16 01:28:31,292 - ERROR - configuration: --prefix=/d/bld/ffmpeg_1739478377444/_h_env/Library --cc=clang.exe --cxx=clang++.exe --nm=llvm-nm --ar=llvm-ar --disable-doc --enable-openssl --enable-demuxer=dash --enable-hardcoded-tables --enable-libfreetype --enable-libharfbuzz --enable-libfontconfig --enable-libopenh264 --enable-libdav1d --ld=lld-link --target-os=win64 --enable-cross-compile --toolchain=msvc --host-cc=clang.exe --extra-libs=ucrt.lib --extra-libs=vcruntime.lib --extra-libs=oldnames.lib --strip=llvm-strip --disable-stripping --host-extralibs= --disable-libopenvino --enable-gpl --enable-libx264 --enable-libx265 --enable-libaom --enable-libsvtav1 --enable-libxml2 --enable-pic --enable-shared --disable-static --enable-version3 --enable-zlib --enable-libopus --enable-librsvg --enable-ffplay --pkg-config=/d/bld/ffmpeg_1739478377444/_build_env/Library/bin/pkg-config
2025-02-16 01:28:31,306 - ERROR - libavutil      59. 39.100 / 59. 39.100
2025-02-16 01:28:31,306 - ERROR - libavcodec     61. 19.100 / 61. 19.100
2025-02-16 01:28:31,306 - ERROR - libavformat    61.  7.100 / 61.  7.100
2025-02-16 01:28:31,306 - ERROR - libavdevice    61.  3.100 / 61.  3.100
2025-02-16 01:28:31,306 - ERROR - libavfilter    10.  4.100 / 10.  4.100
2025-02-16 01:28:31,306 - ERROR - libswscale      8.  3.100 /  8.  3.100
2025-02-16 01:28:31,306 - ERROR - libswresample   5.  3.100 /  5.  3.100
2025-02-16 01:28:31,306 - ERROR - libpostproc    58.  3.100 / 58.  3.100
2025-02-16 01:28:31,328 - ERROR - [aist#0:0/pcm_s16le @ 00000223915E1A00] Guessed Channel Layout: stereo
2025-02-16 01:28:31,328 - ERROR - Input #0, wav, from 'final_obbama_5_seconds.wav':
2025-02-16 01:28:31,328 - ERROR - Metadata:
2025-02-16 01:28:31,328 - ERROR - encoder         : Lavf58.20.100
2025-02-16 01:28:31,328 - ERROR - Duration: 00:00:05.02, bitrate: 1411 kb/s
2025-02-16 01:28:31,337 - ERROR - Stream #0:0: Audio: pcm_s16le ([1][0][0][0] / 0x0001), 44100 Hz, stereo, s16, 1411 kb/s
2025-02-16 01:28:31,353 - ERROR - Input #1, avi, from 'temp/result.avi':
2025-02-16 01:28:31,353 - ERROR - Metadata:
2025-02-16 01:28:31,353 - ERROR - software        : Lavf58.76.100
2025-02-16 01:28:31,358 - ERROR - Duration: 00:00:04.88, start: 0.000000, bitrate: 1644 kb/s
2025-02-16 01:28:31,358 - ERROR - Stream #1:0: Video: mpeg4 (Simple Profile) (DIVX / 0x58564944), yuv420p, 1280x720 [SAR 1:1 DAR 16:9], 1644 kb/s, 24.18 fps, 24.17 tbr, 24.18 tbn
2025-02-16 01:28:31,358 - ERROR - Stream mapping:
2025-02-16 01:28:31,358 - ERROR - Stream #1:0 -> #0:0 (mpeg4 (native) -> h264 (libx264))
2025-02-16 01:28:31,358 - ERROR - Stream #0:0 -> #0:1 (pcm_s16le (native) -> aac (native))
2025-02-16 01:28:31,358 - ERROR - Press [q] to stop, [?] for help
2025-02-16 01:28:31,361 - ERROR - [libx264 @ 00000223915B4E40] -qscale is ignored, -crf is recommended.
2025-02-16 01:28:31,361 - ERROR - [libx264 @ 00000223915B4E40] using SAR=1/1
2025-02-16 01:28:31,361 - ERROR - [libx264 @ 00000223915B4E40] using cpu capabilities: MMX2 SSE2Fast SSSE3 SSE4.2 AVX FMA3 BMI2 AVX2
2025-02-16 01:28:31,361 - ERROR - [libx264 @ 00000223915B4E40] profile High, level 3.1, 4:2:0, 8-bit
2025-02-16 01:28:31,361 - ERROR - [libx264 @ 00000223915B4E40] 264 - core 164 r3095 baee400 - H.264/MPEG-4 AVC codec - Copyleft 2003-2022 - http://www.videolan.org/x264.html - options: cabac=1 ref=3 deblock=1:0:0 analyse=0x3:0x113 me=hex subme=7 psy=1 psy_rd=1.00:0.00 mixed_ref=1 me_range=16 chroma_me=1 trellis=1 8x8dct=1 cqm=0 deadzone=21,11 fast_pskip=1 chroma_qp_offset=-2 threads=12 lookahead_threads=2 sliced_threads=0 nr=0 decimate=1 interlaced=0 bluray_compat=0 constrained_intra=0 bframes=3 b_pyramid=2 b_adapt=1 b_bias=0 direct=1 weightb=1 open_gop=0 weightp=2 keyint=250 keyint_min=24 scenecut=40 intra_refresh=0 rc_lookahead=40 rc=crf mbtree=1 crf=23.0 qcomp=0.60 qpmin=0 qpmax=69 qpstep=4 ip_ratio=1.40 aq=1:1.00
2025-02-16 01:28:31,361 - ERROR - Output #0, mp4, to 'results/result_voice.mp4':
2025-02-16 01:28:31,361 - ERROR - Metadata:
2025-02-16 01:28:31,361 - ERROR - encoder         : Lavf61.7.100
2025-02-16 01:28:31,361 - ERROR - Stream #0:0: Video: h264 (avc1 / 0x31637661), yuv420p(tv, progressive), 1280x720 [SAR 1:1 DAR 16:9], q=2-31, 24.17 fps, 18560 tbn
2025-02-16 01:28:31,361 - ERROR - Metadata:
2025-02-16 01:28:31,361 - ERROR - encoder         : Lavc61.19.100 libx264
2025-02-16 01:28:31,361 - ERROR - Side data:
2025-02-16 01:28:31,361 - ERROR - cpb: bitrate max/min/avg: 0/0/0 buffer size: 0 vbv_delay: N/A
2025-02-16 01:28:31,361 - ERROR - Stream #0:1: Audio: aac (LC) (mp4a / 0x6134706D), 44100 Hz, stereo, fltp, 128 kb/s
2025-02-16 01:28:31,361 - ERROR - Metadata:
2025-02-16 01:28:31,361 - ERROR - encoder         : Lavc61.19.100 aac
2025-02-16 01:28:32,267 - ERROR - frame=   45 fps=0.0 q=28.0 size=       0KiB time=00:00:01.77 bitrate=   0.2kbits/s speed=3.45x
2025-02-16 01:28:32,269 - ERROR - [out#0/mp4 @ 0000022391572880] video:480KiB audio:81KiB subtitle:0KiB other streams:0KiB global headers:0KiB muxing overhead: 0.836473%
2025-02-16 01:28:32,269 - ERROR - frame=  118 fps=0.0 q=-1.0 Lsize=     565KiB time=00:00:04.80 bitrate= 964.4kbits/s speed=5.28x
2025-02-16 01:28:32,270 - ERROR - [libx264 @ 00000223915B4E40] frame I:1     Avg QP:15.11  size: 21519
2025-02-16 01:28:32,270 - ERROR - [libx264 @ 00000223915B4E40] frame P:84    Avg QP:20.72  size:  4801
2025-02-16 01:28:32,270 - ERROR - [libx264 @ 00000223915B4E40] frame B:33    Avg QP:23.56  size:  1990
2025-02-16 01:28:32,270 - ERROR - [libx264 @ 00000223915B4E40] consecutive B-frames: 57.6% 13.6%  5.1% 23.7%
2025-02-16 01:28:32,271 - ERROR - [libx264 @ 00000223915B4E40] mb I  I16..4: 62.0% 36.6%  1.4%
2025-02-16 01:28:32,271 - ERROR - [libx264 @ 00000223915B4E40] mb P  I16..4:  1.4%  5.5%  0.1%  P16..4: 17.2%  3.4%  1.5%  0.0%  0.0%    skip:71.0%
2025-02-16 01:28:32,271 - ERROR - [libx264 @ 00000223915B4E40] mb B  I16..4:  0.4%  1.3%  0.0%  B16..8: 18.7%  1.5%  0.2%  direct: 0.5%  skip:77.4%  L0:57.5% L1:38.2% BI: 4.3%
2025-02-16 01:28:32,271 - ERROR - [libx264 @ 00000223915B4E40] 8x8 transform intra:72.4% inter:83.9%
2025-02-16 01:28:32,271 - ERROR - [libx264 @ 00000223915B4E40] coded y,uvDC,uvAC intra: 30.8% 52.7% 8.8% inter: 4.1% 5.7% 0.1%
2025-02-16 01:28:32,271 - ERROR - [libx264 @ 00000223915B4E40] i16 v,h,dc,p: 53% 23% 15%  9%
2025-02-16 01:28:32,272 - ERROR - [libx264 @ 00000223915B4E40] i8 v,h,dc,ddl,ddr,vr,hd,vl,hu: 24% 22% 39%  3%  3%  3%  2%  2%  2%
2025-02-16 01:28:32,272 - ERROR - [libx264 @ 00000223915B4E40] i4 v,h,dc,ddl,ddr,vr,hd,vl,hu: 28% 18% 21%  3%  8%  7%  5%  5%  6%
2025-02-16 01:28:32,272 - ERROR - [libx264 @ 00000223915B4E40] i8c dc,h,v,p: 43% 23% 28%  6%
2025-02-16 01:28:32,272 - ERROR - [libx264 @ 00000223915B4E40] Weighted P-Frames: Y:0.0% UV:0.0%
2025-02-16 01:28:32,272 - ERROR - [libx264 @ 00000223915B4E40] ref P L0: 74.1%  8.7% 12.4%  4.8%
2025-02-16 01:28:32,272 - ERROR - [libx264 @ 00000223915B4E40] ref B L0: 84.2% 12.7%  3.1%
2025-02-16 01:28:32,273 - ERROR - [libx264 @ 00000223915B4E40] ref B L1: 96.6%  3.4%
2025-02-16 01:28:32,273 - ERROR - [libx264 @ 00000223915B4E40] kb/s:803.65
2025-02-16 01:28:32,289 - ERROR - [aac @ 000002239344C280] Qavg: 1353.375
2025-02-16 01:28:32,476 - INFO - Load checkpoint from: wav2lip.pth
2025-02-16 01:28:32,477 - INFO - Model loaded
2025-02-16 01:28:33,951 - INFO - Inference completed successfully.
2025-02-16 01:28:33,951 - INFO - Returning the processed video as a file response.
2025-02-16 01:36:11,520 - INFO - Received video: kevin.mp4, audio: final_obbama_5_seconds.wav
2025-02-16 01:36:11,520 - INFO - Temporary video file saved at: C:\Users\ihebm\AppData\Local\Temp\tmpmjhlklzx.mp4 (1291127 bytes)
2025-02-16 01:36:11,534 - INFO - Temporary audio file saved at: C:\Users\ihebm\AppData\Local\Temp\tmpcybbsndk.wav (884814 bytes)
2025-02-16 01:36:11,541 - INFO - Current working directory: C:\Users\ihebm\PycharmProjects\FastAPIProject\app\Wav2Lip
2025-02-16 01:36:11,541 - INFO - Running inference command: python inference.py --checkpoint_path wav2lip.pth --face kevin.mp4 --audio final_obbama_5_seconds.wav
2025-02-16 01:36:17,625 - ERROR - C:\Users\ihebm\PycharmProjects\FastAPIProject\app\Wav2Lip\audio.py:100: FutureWarning: Pass sr=16000, n_fft=800 as keyword args. From version 0.10 passing these as positional arguments will result in an error
2025-02-16 01:36:17,625 - ERROR - return librosa.filters.mel(hp.sample_rate, hp.n_fft, n_mels=hp.num_mels,
2025-02-16 01:36:17,625 - INFO - Using cpu for inference.
2025-02-16 01:36:17,625 - ERROR - 
2025-02-16 01:36:17,625 - INFO - Reading video frames...
2025-02-16 01:36:17,625 - INFO - Number of frames available for inference: 120
2025-02-16 01:36:17,625 - INFO - (80, 402)
2025-02-16 01:36:17,625 - INFO - Length of mel chunks: 118
2025-02-16 01:36:17,848 - ERROR - 0%|          | 0/1 [00:00<?, ?it/s]
2025-02-16 01:36:17,848 - ERROR - 
2025-02-16 01:36:40,396 - ERROR - 0%|          | 0/8 [00:00<?, ?it/s][A
2025-02-16 01:36:40,416 - ERROR - 0%|          | 0/8 [00:22<?, ?it/s]
2025-02-16 01:36:40,418 - ERROR - 
2025-02-16 01:36:40,455 - ERROR - 0%|          | 0/1 [00:22<?, ?it/s]
2025-02-16 01:36:40,461 - ERROR - Traceback (most recent call last):
2025-02-16 01:36:40,461 - ERROR - File "C:\Users\ihebm\PycharmProjects\FastAPIProject\app\Wav2Lip\face_detection\detection\sfd\detect.py", line 68, in batch_detect
2025-02-16 01:36:40,461 - ERROR - olist = net(imgs)
2025-02-16 01:36:40,461 - ERROR - ^^^^^^^^^
2025-02-16 01:36:40,461 - ERROR - File "C:\Users\ihebm\miniconda3\envs\newenvir\Lib\site-packages\torch\nn\modules\module.py", line 1739, in _wrapped_call_impl
2025-02-16 01:36:40,461 - ERROR - return self._call_impl(*args, **kwargs)
2025-02-16 01:36:40,461 - ERROR - ^^^^^^^^^^^^^^^^^^^^^^^^^^^^^^^^
2025-02-16 01:36:40,461 - ERROR - File "C:\Users\ihebm\miniconda3\envs\newenvir\Lib\site-packages\torch\nn\modules\module.py", line 1750, in _call_impl
2025-02-16 01:36:40,461 - ERROR - return forward_call(*args, **kwargs)
2025-02-16 01:36:40,465 - ERROR - ^^^^^^^^^^^^^^^^^^^^^^^^^^^^^
2025-02-16 01:36:40,465 - ERROR - File "C:\Users\ihebm\PycharmProjects\FastAPIProject\app\Wav2Lip\face_detection\detection\sfd\net_s3fd.py", line 75, in forward
2025-02-16 01:36:40,475 - ERROR - h = F.relu(self.conv2_1(h))
2025-02-16 01:36:40,475 - ERROR - ^^^^^^^^^^^^^^^
2025-02-16 01:36:40,475 - ERROR - File "C:\Users\ihebm\miniconda3\envs\newenvir\Lib\site-packages\torch\nn\modules\module.py", line 1739, in _wrapped_call_impl
2025-02-16 01:36:40,477 - ERROR - return self._call_impl(*args, **kwargs)
2025-02-16 01:36:40,477 - ERROR - ^^^^^^^^^^^^^^^^^^^^^^^^^^^^^^^^
2025-02-16 01:36:40,477 - ERROR - File "C:\Users\ihebm\miniconda3\envs\newenvir\Lib\site-packages\torch\nn\modules\module.py", line 1750, in _call_impl
2025-02-16 01:36:40,477 - ERROR - return forward_call(*args, **kwargs)
2025-02-16 01:36:40,477 - ERROR - ^^^^^^^^^^^^^^^^^^^^^^^^^^^^^
2025-02-16 01:36:40,477 - ERROR - File "C:\Users\ihebm\miniconda3\envs\newenvir\Lib\site-packages\torch\nn\modules\conv.py", line 554, in forward
2025-02-16 01:36:40,477 - ERROR - return self._conv_forward(input, self.weight, self.bias)
2025-02-16 01:36:40,477 - ERROR - ^^^^^^^^^^^^^^^^^^^^^^^^^^^^^^^^^^^^^^^^^^^^^^^^^
2025-02-16 01:36:40,477 - ERROR - File "C:\Users\ihebm\miniconda3\envs\newenvir\Lib\site-packages\torch\nn\modules\conv.py", line 549, in _conv_forward
2025-02-16 01:36:40,477 - ERROR - return F.conv2d(
2025-02-16 01:36:40,477 - ERROR - ^^^^^^^^^
2025-02-16 01:36:40,477 - ERROR - KeyboardInterrupt
2025-02-16 01:36:40,477 - ERROR - 
2025-02-16 01:36:40,485 - ERROR - During handling of the above exception, another exception occurred:
2025-02-16 01:36:40,487 - ERROR - 
2025-02-16 01:36:40,505 - ERROR - Traceback (most recent call last):
2025-02-16 01:36:40,506 - ERROR - File "C:\Users\ihebm\PycharmProjects\FastAPIProject\app\Wav2Lip\inference.py", line 278, in <module>
2025-02-16 01:36:40,517 - ERROR - main()
2025-02-16 01:36:40,517 - ERROR - File "C:\Users\ihebm\PycharmProjects\FastAPIProject\app\Wav2Lip\inference.py", line 247, in main
2025-02-16 01:36:40,517 - ERROR - for i, (img_batch, mel_batch, frames, coords) in enumerate(tqdm(gen,
2025-02-16 01:36:40,521 - ERROR - ^^^^^^^^^^^^^^^^^^^^^^^^^^^^^^^^^^^^^^^^^^^^^^^^^^^^^^^^^^^^^^^^^^^^
2025-02-16 01:36:40,521 - ERROR - File "C:\Users\ihebm\miniconda3\envs\newenvir\Lib\site-packages\tqdm\std.py", line 1181, in __iter__
2025-02-16 01:36:40,523 - ERROR - for obj in iterable:
2025-02-16 01:36:40,527 - ERROR - File "C:\Users\ihebm\PycharmProjects\FastAPIProject\app\Wav2Lip\inference.py", line 111, in datagen
2025-02-16 01:36:40,527 - ERROR - face_det_results = face_detect(frames) # BGR2RGB for CNN face detection
2025-02-16 01:36:40,527 - ERROR - ^^^^^^^^^^^^^^^^^^^
2025-02-16 01:36:40,527 - ERROR - File "C:\Users\ihebm\PycharmProjects\FastAPIProject\app\Wav2Lip\inference.py", line 76, in face_detect
2025-02-16 01:36:40,527 - ERROR - predictions.extend(detector.get_detections_for_batch(np.array(images[i:i + batch_size])))
2025-02-16 01:36:40,536 - ERROR - ^^^^^^^^^^^^^^^^^^^^^^^^^^^^^^^^^^^^^^^^^^^^^^^^^^^^^^^^^^^^^^^^^^^^^
2025-02-16 01:36:40,536 - ERROR - File "C:\Users\ihebm\PycharmProjects\FastAPIProject\app\Wav2Lip\face_detection\api.py", line 66, in get_detections_for_batch
2025-02-16 01:36:40,550 - ERROR - detected_faces = self.face_detector.detect_from_batch(images.copy())
2025-02-16 01:36:40,552 - ERROR - ^^^^^^^^^^^^^^^^^^^^^^^^^^^^^^^^^^^^^^^^^^^^^^^^^^^
2025-02-16 01:36:40,552 - ERROR - File "C:\Users\ihebm\PycharmProjects\FastAPIProject\app\Wav2Lip\face_detection\detection\sfd\sfd_detector.py", line 42, in detect_from_batch
2025-02-16 01:36:40,554 - ERROR - bboxlists = batch_detect(self.face_detector, images, device=self.device)
2025-02-16 01:36:40,554 - ERROR - ^^^^^^^^^^^^^^^^^^^^^^^^^^^^^^^^^^^^^^^^^^^^^^^^^^^^^^^^^^^^
2025-02-16 01:36:40,554 - ERROR - File "C:\Users\ihebm\PycharmProjects\FastAPIProject\app\Wav2Lip\face_detection\detection\sfd\detect.py", line 67, in batch_detect
2025-02-16 01:36:40,554 - ERROR - with torch.no_grad():
2025-02-16 01:36:40,554 - ERROR - File "C:\Users\ihebm\miniconda3\envs\newenvir\Lib\site-packages\torch\autograd\grad_mode.py", line 84, in __exit__
2025-02-16 01:36:40,556 - ERROR - def __exit__(self, exc_type: Any, exc_value: Any, traceback: Any) -> None:
2025-02-16 01:36:40,556 - ERROR - 
2025-02-16 01:36:40,556 - ERROR - KeyboardInterrupt
2025-02-16 01:36:40,651 - ERROR - Exception ignored in atexit callback: <bound method finalize._exitfunc of <class 'weakref.finalize'>>
2025-02-16 01:36:40,651 - ERROR - Traceback (most recent call last):
2025-02-16 01:36:40,651 - ERROR - File "C:\Users\ihebm\miniconda3\envs\newenvir\Lib\weakref.py", line 666, in _exitfunc
2025-02-16 01:36:40,656 - ERROR - f()
2025-02-16 01:36:40,656 - ERROR - File "C:\Users\ihebm\miniconda3\envs\newenvir\Lib\weakref.py", line 590, in __call__
2025-02-16 01:36:40,674 - ERROR - return info.func(*info.args, **(info.kwargs or {}))
2025-02-16 01:36:40,674 - ERROR - ^^^^^^^^^^^^^^^^^^^^^^^^^^^^^^^^^^^^^^^^^^^^
2025-02-16 01:36:40,676 - ERROR - File "C:\Users\ihebm\miniconda3\envs\newenvir\Lib\site-packages\torch\library.py", line 433, in _del_library
2025-02-16 01:36:40,688 - ERROR - handle.destroy()
2025-02-16 01:36:40,692 - ERROR - File "C:\Users\ihebm\miniconda3\envs\newenvir\Lib\site-packages\torch\_library\utils.py", line 41, in destroy
2025-02-16 01:36:40,711 - ERROR - self._on_destroy()
2025-02-16 01:36:40,718 - ERROR - File "C:\Users\ihebm\miniconda3\envs\newenvir\Lib\site-packages\torch\_library\fake_impl.py", line 67, in deregister_fake_class
2025-02-16 01:36:40,718 - ERROR - self.lib._destroy()
2025-02-16 01:36:40,718 - ERROR - File "C:\Users\ihebm\miniconda3\envs\newenvir\Lib\site-packages\torch\library.py", line 398, in _destroy
2025-02-16 01:36:40,720 - ERROR - self.m.reset()
2025-02-16 01:36:40,720 - ERROR - KeyboardInterrupt:
2025-02-16 01:36:41,946 - ERROR - An error occurred: Inference failed with return code 3221225786
Traceback (most recent call last):
  File "C:\Users\ihebm\PycharmProjects\FastAPIProject\app\services\lipsync_service.py", line 92, in process_lipsync
    raise RuntimeError(f"Inference failed with return code {return_code}")
RuntimeError: Inference failed with return code 3221225786
2025-02-16 01:37:50,182 - INFO - Received video: kevin.mp4, audio: final_obbama_5_seconds.wav
2025-02-16 01:37:50,182 - INFO - Temporary video file saved at: C:\Users\ihebm\AppData\Local\Temp\tmpsdl_rpcm.mp4 (1291127 bytes)
2025-02-16 01:37:50,182 - INFO - Temporary audio file saved at: C:\Users\ihebm\AppData\Local\Temp\tmp_h03dqgm.wav (884814 bytes)
2025-02-16 01:37:50,182 - INFO - Current working directory: C:\Users\ihebm\PycharmProjects\FastAPIProject\app\Wav2Lip
2025-02-16 01:37:50,182 - INFO - Running inference command: python inference.py --checkpoint_path wav2lip.pth --face kevin.mp4 --audio final_obbama_5_seconds.wav
2025-02-16 01:37:56,099 - ERROR - C:\Users\ihebm\PycharmProjects\FastAPIProject\app\Wav2Lip\audio.py:100: FutureWarning: Pass sr=16000, n_fft=800 as keyword args. From version 0.10 passing these as positional arguments will result in an error
2025-02-16 01:37:56,099 - ERROR - return librosa.filters.mel(hp.sample_rate, hp.n_fft, n_mels=hp.num_mels,
2025-02-16 01:37:56,115 - INFO - Using cpu for inference.
2025-02-16 01:37:56,115 - ERROR - 
2025-02-16 01:37:56,115 - INFO - Reading video frames...
2025-02-16 01:37:56,115 - INFO - Number of frames available for inference: 120
2025-02-16 01:37:56,115 - INFO - (80, 402)
2025-02-16 01:37:56,115 - INFO - Length of mel chunks: 118
2025-02-16 01:37:56,353 - ERROR - 0%|          | 0/1 [00:00<?, ?it/s]
2025-02-16 01:37:56,353 - ERROR - 
2025-02-16 01:38:47,564 - ERROR - 0%|          | 0/8 [00:00<?, ?it/s][A
2025-02-16 01:38:47,564 - ERROR - 
2025-02-16 01:39:32,276 - ERROR - 12%|#2        | 1/8 [00:51<05:58, 51.21s/it][A
2025-02-16 01:39:32,276 - ERROR - 
2025-02-16 01:40:16,858 - ERROR - 25%|##5       | 2/8 [01:35<04:44, 47.39s/it][A
2025-02-16 01:40:16,858 - ERROR - 
2025-02-16 01:41:01,877 - ERROR - 38%|###7      | 3/8 [02:20<03:50, 46.11s/it][A
2025-02-16 01:41:01,877 - ERROR - 
2025-02-16 01:41:46,812 - ERROR - 50%|#####     | 4/8 [03:05<03:02, 45.68s/it][A
2025-02-16 01:41:46,816 - ERROR - 
2025-02-16 01:42:32,974 - ERROR - 62%|######2   | 5/8 [03:50<02:16, 45.41s/it][A
2025-02-16 01:42:32,974 - ERROR - 
2025-02-16 01:43:18,553 - ERROR - 75%|#######5  | 6/8 [04:36<01:31, 45.67s/it][A
2025-02-16 01:43:18,553 - ERROR - 
2025-02-16 01:43:35,202 - ERROR - 88%|########7 | 7/8 [05:22<00:45, 45.64s/it][A
2025-02-16 01:43:35,202 - ERROR - 
2025-02-16 01:43:35,202 - ERROR - 100%|##########| 8/8 [05:38<00:00, 36.41s/it][A
2025-02-16 01:43:35,202 - ERROR - 100%|##########| 8/8 [05:38<00:00, 42.36s/it]
2025-02-16 01:43:42,067 - ERROR - 
2025-02-16 01:43:42,082 - ERROR - 100%|##########| 1/1 [05:45<00:00, 345.95s/it]
2025-02-16 01:43:42,082 - ERROR - 100%|##########| 1/1 [05:45<00:00, 345.97s/it]
2025-02-16 01:43:42,355 - ERROR - ffmpeg version 7.1 Copyright (c) 2000-2024 the FFmpeg developers
2025-02-16 01:43:42,355 - ERROR - built with clang version 19.1.7
2025-02-16 01:43:42,367 - ERROR - configuration: --prefix=/d/bld/ffmpeg_1739478377444/_h_env/Library --cc=clang.exe --cxx=clang++.exe --nm=llvm-nm --ar=llvm-ar --disable-doc --enable-openssl --enable-demuxer=dash --enable-hardcoded-tables --enable-libfreetype --enable-libharfbuzz --enable-libfontconfig --enable-libopenh264 --enable-libdav1d --ld=lld-link --target-os=win64 --enable-cross-compile --toolchain=msvc --host-cc=clang.exe --extra-libs=ucrt.lib --extra-libs=vcruntime.lib --extra-libs=oldnames.lib --strip=llvm-strip --disable-stripping --host-extralibs= --disable-libopenvino --enable-gpl --enable-libx264 --enable-libx265 --enable-libaom --enable-libsvtav1 --enable-libxml2 --enable-pic --enable-shared --disable-static --enable-version3 --enable-zlib --enable-libopus --enable-librsvg --enable-ffplay --pkg-config=/d/bld/ffmpeg_1739478377444/_build_env/Library/bin/pkg-config
2025-02-16 01:43:42,367 - ERROR - libavutil      59. 39.100 / 59. 39.100
2025-02-16 01:43:42,367 - ERROR - libavcodec     61. 19.100 / 61. 19.100
2025-02-16 01:43:42,367 - ERROR - libavformat    61.  7.100 / 61.  7.100
2025-02-16 01:43:42,367 - ERROR - libavdevice    61.  3.100 / 61.  3.100
2025-02-16 01:43:42,367 - ERROR - libavfilter    10.  4.100 / 10.  4.100
2025-02-16 01:43:42,369 - ERROR - libswscale      8.  3.100 /  8.  3.100
2025-02-16 01:43:42,369 - ERROR - libswresample   5.  3.100 /  5.  3.100
2025-02-16 01:43:42,369 - ERROR - libpostproc    58.  3.100 / 58.  3.100
2025-02-16 01:43:42,389 - ERROR - [aist#0:0/pcm_s16le @ 00000261DE778F00] Guessed Channel Layout: stereo
2025-02-16 01:43:42,389 - ERROR - Input #0, wav, from 'final_obbama_5_seconds.wav':
2025-02-16 01:43:42,389 - ERROR - Metadata:
2025-02-16 01:43:42,398 - ERROR - encoder         : Lavf58.20.100
2025-02-16 01:43:42,398 - ERROR - Duration: 00:00:05.02, bitrate: 1411 kb/s
2025-02-16 01:43:42,398 - ERROR - Stream #0:0: Audio: pcm_s16le ([1][0][0][0] / 0x0001), 44100 Hz, stereo, s16, 1411 kb/s
2025-02-16 01:43:42,409 - ERROR - Input #1, avi, from 'temp/result.avi':
2025-02-16 01:43:42,409 - ERROR - Metadata:
2025-02-16 01:43:42,409 - ERROR - software        : Lavf58.76.100
2025-02-16 01:43:42,409 - ERROR - Duration: 00:00:04.88, start: 0.000000, bitrate: 1644 kb/s
2025-02-16 01:43:42,409 - ERROR - Stream #1:0: Video: mpeg4 (Simple Profile) (DIVX / 0x58564944), yuv420p, 1280x720 [SAR 1:1 DAR 16:9], 1644 kb/s, 24.18 fps, 24.17 tbr, 24.18 tbn
2025-02-16 01:43:42,409 - ERROR - Stream mapping:
2025-02-16 01:43:42,409 - ERROR - Stream #1:0 -> #0:0 (mpeg4 (native) -> h264 (libx264))
2025-02-16 01:43:42,409 - ERROR - Stream #0:0 -> #0:1 (pcm_s16le (native) -> aac (native))
2025-02-16 01:43:42,413 - ERROR - Press [q] to stop, [?] for help
2025-02-16 01:43:42,415 - ERROR - [libx264 @ 00000261E06ECF00] -qscale is ignored, -crf is recommended.
2025-02-16 01:43:42,424 - ERROR - [libx264 @ 00000261E06ECF00] using SAR=1/1
2025-02-16 01:43:42,424 - ERROR - [libx264 @ 00000261E06ECF00] using cpu capabilities: MMX2 SSE2Fast SSSE3 SSE4.2 AVX FMA3 BMI2 AVX2
2025-02-16 01:43:42,424 - ERROR - [libx264 @ 00000261E06ECF00] profile High, level 3.1, 4:2:0, 8-bit
2025-02-16 01:43:42,424 - ERROR - [libx264 @ 00000261E06ECF00] 264 - core 164 r3095 baee400 - H.264/MPEG-4 AVC codec - Copyleft 2003-2022 - http://www.videolan.org/x264.html - options: cabac=1 ref=3 deblock=1:0:0 analyse=0x3:0x113 me=hex subme=7 psy=1 psy_rd=1.00:0.00 mixed_ref=1 me_range=16 chroma_me=1 trellis=1 8x8dct=1 cqm=0 deadzone=21,11 fast_pskip=1 chroma_qp_offset=-2 threads=12 lookahead_threads=2 sliced_threads=0 nr=0 decimate=1 interlaced=0 bluray_compat=0 constrained_intra=0 bframes=3 b_pyramid=2 b_adapt=1 b_bias=0 direct=1 weightb=1 open_gop=0 weightp=2 keyint=250 keyint_min=24 scenecut=40 intra_refresh=0 rc_lookahead=40 rc=crf mbtree=1 crf=23.0 qcomp=0.60 qpmin=0 qpmax=69 qpstep=4 ip_ratio=1.40 aq=1:1.00
2025-02-16 01:43:42,424 - ERROR - Output #0, mp4, to 'results/result_voice.mp4':
2025-02-16 01:43:42,424 - ERROR - Metadata:
2025-02-16 01:43:42,424 - ERROR - encoder         : Lavf61.7.100
2025-02-16 01:43:42,424 - ERROR - Stream #0:0: Video: h264 (avc1 / 0x31637661), yuv420p(tv, progressive), 1280x720 [SAR 1:1 DAR 16:9], q=2-31, 24.17 fps, 18560 tbn
2025-02-16 01:43:42,424 - ERROR - Metadata:
2025-02-16 01:43:42,424 - ERROR - encoder         : Lavc61.19.100 libx264
2025-02-16 01:43:42,424 - ERROR - Side data:
2025-02-16 01:43:42,424 - ERROR - cpb: bitrate max/min/avg: 0/0/0 buffer size: 0 vbv_delay: N/A
2025-02-16 01:43:42,424 - ERROR - Stream #0:1: Audio: aac (LC) (mp4a / 0x6134706D), 44100 Hz, stereo, fltp, 128 kb/s
2025-02-16 01:43:42,424 - ERROR - Metadata:
2025-02-16 01:43:42,424 - ERROR - encoder         : Lavc61.19.100 aac
2025-02-16 01:43:43,346 - ERROR - frame=   46 fps=0.0 q=28.0 size=       0KiB time=00:00:01.82 bitrate=   0.2kbits/s speed=3.57x
2025-02-16 01:43:43,346 - ERROR - [out#0/mp4 @ 00000261DE715200] video:480KiB audio:81KiB subtitle:0KiB other streams:0KiB global headers:0KiB muxing overhead: 0.836473%
2025-02-16 01:43:43,346 - ERROR - frame=  118 fps=0.0 q=-1.0 Lsize=     565KiB time=00:00:04.80 bitrate= 964.4kbits/s speed=5.12x
2025-02-16 01:43:43,346 - ERROR - [libx264 @ 00000261E06ECF00] frame I:1     Avg QP:15.11  size: 21519
2025-02-16 01:43:43,353 - ERROR - [libx264 @ 00000261E06ECF00] frame P:84    Avg QP:20.72  size:  4801
2025-02-16 01:43:43,353 - ERROR - [libx264 @ 00000261E06ECF00] frame B:33    Avg QP:23.56  size:  1990
2025-02-16 01:43:43,353 - ERROR - [libx264 @ 00000261E06ECF00] consecutive B-frames: 57.6% 13.6%  5.1% 23.7%
2025-02-16 01:43:43,353 - ERROR - [libx264 @ 00000261E06ECF00] mb I  I16..4: 62.0% 36.6%  1.4%
2025-02-16 01:43:43,353 - ERROR - [libx264 @ 00000261E06ECF00] mb P  I16..4:  1.4%  5.5%  0.1%  P16..4: 17.2%  3.4%  1.5%  0.0%  0.0%    skip:71.0%
2025-02-16 01:43:43,353 - ERROR - [libx264 @ 00000261E06ECF00] mb B  I16..4:  0.4%  1.3%  0.0%  B16..8: 18.7%  1.5%  0.2%  direct: 0.5%  skip:77.4%  L0:57.5% L1:38.2% BI: 4.3%
2025-02-16 01:43:43,353 - ERROR - [libx264 @ 00000261E06ECF00] 8x8 transform intra:72.4% inter:83.9%
2025-02-16 01:43:43,353 - ERROR - [libx264 @ 00000261E06ECF00] coded y,uvDC,uvAC intra: 30.8% 52.7% 8.8% inter: 4.1% 5.7% 0.1%
2025-02-16 01:43:43,353 - ERROR - [libx264 @ 00000261E06ECF00] i16 v,h,dc,p: 53% 23% 15%  9%
2025-02-16 01:43:43,353 - ERROR - [libx264 @ 00000261E06ECF00] i8 v,h,dc,ddl,ddr,vr,hd,vl,hu: 24% 22% 39%  3%  3%  3%  2%  2%  2%
2025-02-16 01:43:43,353 - ERROR - [libx264 @ 00000261E06ECF00] i4 v,h,dc,ddl,ddr,vr,hd,vl,hu: 28% 18% 21%  3%  8%  7%  5%  5%  6%
2025-02-16 01:43:43,353 - ERROR - [libx264 @ 00000261E06ECF00] i8c dc,h,v,p: 43% 23% 28%  6%
2025-02-16 01:43:43,353 - ERROR - [libx264 @ 00000261E06ECF00] Weighted P-Frames: Y:0.0% UV:0.0%
2025-02-16 01:43:43,353 - ERROR - [libx264 @ 00000261E06ECF00] ref P L0: 74.1%  8.7% 12.4%  4.8%
2025-02-16 01:43:43,353 - ERROR - [libx264 @ 00000261E06ECF00] ref B L0: 84.2% 12.7%  3.1%
2025-02-16 01:43:43,353 - ERROR - [libx264 @ 00000261E06ECF00] ref B L1: 96.6%  3.4%
2025-02-16 01:43:43,353 - ERROR - [libx264 @ 00000261E06ECF00] kb/s:803.65
2025-02-16 01:43:43,370 - ERROR - [aac @ 00000261E071B740] Qavg: 1353.375
2025-02-16 01:43:43,501 - INFO - Load checkpoint from: wav2lip.pth
2025-02-16 01:43:43,501 - INFO - Model loaded
2025-02-16 01:43:44,939 - INFO - Inference completed successfully.
2025-02-16 01:43:44,939 - INFO - Returning the processed video as a file response.
